<svg height="512pt" viewBox="0 -7 512 512" width="512pt" xmlns="http://www.w3.org/2000/svg"><path d="m489.65625 248.578125c0 133.144531-107.933594 241.078125-241.078125 241.078125s-241.078125-107.933594-241.078125-241.078125 107.933594-241.078125 241.078125-241.078125 241.078125 107.933594 241.078125 241.078125zm0 0" fill="#7397da"/><path d="m428.972656 408.484375c-257.40625 89.902344-379.511718-209.125-304.035156-366.890625-70.339844 42.105469-117.4375 119.042969-117.4375 206.984375 0 133.144531 107.933594 241.078125 241.078125 241.078125 71.785156 0 136.230469-31.386719 180.394531-81.171875zm0 0" fill="#6988c4"/><path d="m489.539062 255.859375c.070313-2.417969.117188-4.84375.117188-7.28125 0-2.433594-.046875-4.859375-.117188-7.277344h-138.113281c-.632812-33.308593-5.59375-66.351562-14.589843-97.714843h128.8125c-2.402344-4.953126-4.964844-9.808594-7.683594-14.5625h-125.636719c-3.714844-11.167969-7.945313-22.085938-12.691406-32.683594-15.863281-35.414063-36.980469-66.523438-60-88.578125-3.667969-.164063-7.351563-.261719-11.058594-.261719s-7.390625.097656-11.054687.261719c-23.019532 22.054687-44.136719 53.164062-60 88.578125-4.75 10.597656-8.980469 21.519531-12.695313 32.683594h-125.636719c-2.71875 4.753906-5.28125 9.609374-7.679687 14.5625h128.8125c-9 31.363281-13.960938 64.40625-14.589844 97.714843h-138.117187c-.070313 2.417969-.117188 4.84375-.117188 7.277344 0 2.4375.046875 4.863281.117188 7.28125h138.113281c.632812 33.308594 5.59375 66.347656 14.59375 97.714844h-128.8125c2.398437 4.949219 4.960937 9.804687 7.679687 14.558593h125.636719c3.714844 11.167969 7.945313 22.085938 12.695313 32.6875 15.863281 35.414063 36.980468 66.523438 60 88.574219 3.664062.164063 7.347656.261719 11.054687.261719s7.390625-.09375 11.054687-.261719c23.019532-22.050781 44.136719-53.160156 60-88.574219 4.75-10.601562 8.980469-21.519531 12.695313-32.6875h125.636719c2.722656-4.753906 5.28125-9.609374 7.683594-14.558593h-128.8125c8.996093-31.367188 13.957031-64.40625 14.589843-97.714844zm-298.726562-153.570313c15.34375-34.261718 35.707031-64.160156 57.765625-84.957031 22.058594 20.796875 42.421875 50.695313 57.769531 84.957031 3.894532 8.699219 7.429688 17.625 10.601563 26.734376h-136.742188c3.171875-9.109376 6.707031-18.035157 10.605469-26.734376zm115.535156 292.578126c-15.347656 34.261718-35.707031 64.160156-57.769531 84.957031-22.058594-20.796875-42.421875-50.695313-57.765625-84.957031-3.898438-8.699219-7.433594-17.625-10.605469-26.730469h136.742188c-3.171875 9.105469-6.707031 18.03125-10.601563 26.730469zm15.316406-41.292969h-146.171874c-9.367188-31.25-14.539063-64.332031-15.195313-97.714844h176.566406c-.660156 33.382813-5.832031 66.464844-15.199219 97.714844zm-161.367187-112.273438c.65625-33.382812 5.828125-66.464843 15.195313-97.714843h146.171874c9.367188 31.25 14.539063 64.332031 15.199219 97.714843zm0 0" fill="#80bbe6"/><path d="m289.363281 358.75-39.210937-39.210938c-5.84375-5.84375-6.554688-15.070312-1.675782-21.738281 47.535157-64.976562 104.796876-122.238281 169.773438-169.773437 6.667969-4.878906 15.898438-4.167969 21.738281 1.675781l39.210938 39.210937c5.84375 5.84375 6.554687 15.070313 1.675781 21.738282-47.535156 64.976562-104.796875 122.238281-169.773438 169.773437-6.667968 4.878907-15.898437 4.167969-21.738281-1.675781zm0 0" fill="#fce68d"/><path d="m305.960938 228.054688c-20.460938 22.09375-39.65625 45.378906-57.484376 69.746093-4.878906 6.667969-4.167968 15.894531 1.675782 21.738281l39.210937 39.210938c5.84375 5.84375 15.070313 6.554688 21.738281 1.675781 17.183594-12.570312 33.8125-25.84375 49.882813-39.742187-44.09375-4.601563-63.8125-45.125-55.023437-92.628906zm0 0" fill="#f0d87c"/><path d="m316.261719 217.144531 75.5 75.5c3.496093-3.367187 6.960937-6.765625 10.394531-10.199219l-75.699219-75.699218c-3.429687 3.433594-6.832031 6.898437-10.195312 10.398437zm0 0" fill="#eb8d9a"/><path d="m499.964844 125.074219-16.136719-16.132813c-6.050781-6.050781-15.855469-6.050781-21.90625 0l-21.347656 21.347656 38.042969 38.039063 21.347656-21.347656c6.046875-6.050781 6.046875-15.855469 0-21.90625zm0 0" fill="#bebfc0"/><path d="m230.679688 378.222656c9.070312 9.074219 23.601562 9.621094 33.332031 1.25l24.765625-21.308594-38.039063-38.039062-21.308593 24.765625c-8.367188 9.726563-7.824219 24.261719 1.25 33.332031zm0 0" fill="#495059"/><path d="m346.140625 286.917969-5.132813-5.132813c-3.835937-3.835937-3.835937-10.054687 0-13.886718l118.589844-118.589844 19.019532 19.019531-118.589844 118.589844c-3.835938 3.835937-10.050782 3.835937-13.886719 0zm0 0" fill="#495059"/><path d="m485.445312 161.496094c-18.5625-10.890625-22.121093-37.269532-17.828124-56.160156-2.078126.75-4.03125 1.9375-5.695313 3.601562l-21.347656 21.347656 38.039062 38.042969zm0 0" fill="#a9aaab"/><path d="m395.296875 430.339844c-41.34375 33.417968-93.449219 51.816406-146.71875 51.816406-62.390625 0-121.046875-24.296875-165.164063-68.414062-44.117187-44.113282-68.414062-102.769532-68.414062-165.164063 0-17.558594 1.953125-35.058594 5.8125-52.011719.917969-4.039062-1.613281-8.058594-5.652344-8.976562-4.042968-.917969-8.058594 1.609375-8.976562 5.648437-4.101563 18.046875-6.183594 36.664063-6.183594 55.339844 0 66.398437 25.855469 128.820313 72.808594 175.773437 46.949218 46.949219 109.371094 72.804688 175.769531 72.804688 56.691406 0 112.144531-19.585938 156.148437-55.148438 3.21875-2.605468 3.722657-7.328124 1.117188-10.550781-2.605469-3.21875-7.324219-3.722656-10.546875-1.117187zm116.703125-294.3125c0-6.140625-2.390625-11.914063-6.734375-16.253906l-16.132813-16.136719c-8.960937-8.960938-23.546874-8.964844-32.511718 0l-3.578125 3.578125c-21.5625-31.113282-50.144531-57.160156-83.164063-75.65625-36.855468-20.644532-78.800781-31.558594-121.300781-31.558594-51.226563 0-100.417969 15.460938-142.257813 44.703125-40.886718 28.585937-71.9375 68.203125-89.796874 114.574219-1.488282 3.863281.441406 8.203125 4.304687 9.691406.886719.34375 1.796875.503906 2.695313.503906 3.011718 0 5.855468-1.828125 7-4.808594 16.777343-43.570312 45.960937-80.800781 84.390624-107.667968 39.308594-27.472656 85.527344-41.996094 133.664063-41.996094 78.136719 0 150.089844 38.386719 193.683594 102.992188l-2.339844 2.339843c-8.101563-4.535156-18.246094-4.105469-26.101563 1.640625-65.679687 48.050782-123.347656 105.71875-171.394531 171.398438-5.851562 7.992187-6.1875 18.359375-1.390625 26.527344l-17.292968 20.101562c-9.183594 10.675781-10.089844 25.988281-3.035157 37.585938l-7.773437 7.773437c-2.929688 2.929687-2.929688 7.679687 0 10.605469 1.460937 1.464844 3.382812 2.199218 5.300781 2.199218s3.839844-.734374 5.304687-2.195312l7.777344-7.78125c5.09375 3.097656 10.902344 4.667969 16.71875 4.667969 7.433594 0 14.878906-2.550781 20.863282-7.699219l20.117187-17.304688c3.746094 2.199219 7.941406 3.34375 12.171875 3.34375 4.992188 0 10.015625-1.554687 14.339844-4.71875 61.832031-45.238281 116.558594-99 162.84375-159.941406 2.511718 13.820313 3.785156 27.898438 3.785156 42.039063 0 59.167969-22.164062 115.613281-62.40625 158.9375-2.820312 3.035156-2.644531 7.777343.390625 10.597656 1.445313 1.34375 3.273437 2.003906 5.101563 2.003906 2.015624 0 4.019531-.804687 5.496093-2.394531 42.832031-46.105469 66.417969-106.175781 66.417969-169.144531 0-20.019531-2.394531-39.925781-7.109375-59.21875 2.5625-6.6875 2.015625-14.140625-1.476563-20.378907l16.695313-16.695312c4.34375-4.339844 6.734375-10.113281 6.734375-16.253906zm-252.882812 237.761718c-6.710938 5.773438-16.875 5.394532-23.136719-.867187s-6.640625-16.425781-.867188-23.136719l16.035157-18.640625 26.609374 26.609375zm216.582031-189.027343c-.074219.125-.136719.253906-.207031.386719-.199219.367187-.417969.726562-.667969 1.074218-47.140625 64.433594-103.714844 121.007813-168.148438 168.148438-3.710937 2.714844-8.761719 2.324218-12.007812-.925782l-39.214844-39.210937c-3.246094-3.25-3.636719-8.296875-.921875-12.003906 47.140625-64.4375 103.710938-121.011719 168.148438-168.152344 3.707031-2.710937 8.757812-2.324219 12.003906.925781l14.304687 14.304688-113.285156 113.285156c-3.269531 3.269531-5.070313 7.621094-5.070313 12.246094s1.800782 8.976562 5.070313 12.246094l5.132813 5.136718c3.269531 3.269532 7.621093 5.070313 12.246093 5.070313 4.628907 0 8.976563-1.800781 12.246094-5.070313l111.289063-111.289062c-.023438 1.304687-.328126 2.609375-.917969 3.828125zm-16.105469-24.847657 8.414062 8.414063-113.285156 113.285156c-.5625.5625-1.199218.679688-1.640625.679688-.4375 0-1.078125-.117188-1.640625-.679688l-5.132812-5.132812c-.902344-.90625-.902344-2.375 0-3.28125zm35.066406-18.238281-16.046875 16.046875-27.433593-27.4375 16.046874-16.042968c3.113282-3.113282 8.183594-3.113282 11.296876 0l16.136718 16.136718c1.507813 1.507813 2.339844 3.515625 2.339844 5.648438 0 2.132812-.832031 4.140625-2.339844 5.648437zm0 0"/></svg>